<mxfile host="65bd71144e">
    <diagram id="HIjoAzd7otjMuepDiRfb" name="Page-1">
        <mxGraphModel dx="2860" dy="1175" grid="1" gridSize="10" guides="1" tooltips="1" connect="1" arrows="1" fold="1" page="1" pageScale="1" pageWidth="850" pageHeight="1100" math="0" shadow="0">
            <root>
                <mxCell id="0"/>
                <mxCell id="1" parent="0"/>
                <mxCell id="2" style="edgeStyle=none;html=1;entryX=0.5;entryY=0;entryDx=0;entryDy=0;entryPerimeter=0;fontColor=default;labelBackgroundColor=none;" edge="1" parent="1" source="3" target="9">
                    <mxGeometry relative="1" as="geometry">
                        <mxPoint x="120" y="290" as="targetPoint"/>
                    </mxGeometry>
                </mxCell>
                <mxCell id="3" value="start" style="strokeWidth=2;html=1;shape=mxgraph.flowchart.terminator;whiteSpace=wrap;fontColor=default;labelBackgroundColor=none;" vertex="1" parent="1">
                    <mxGeometry x="70" y="200" width="100" height="60" as="geometry"/>
                </mxCell>
                <mxCell id="4" value="end" style="strokeWidth=2;html=1;shape=mxgraph.flowchart.terminator;whiteSpace=wrap;fontColor=default;labelBackgroundColor=none;" vertex="1" parent="1">
                    <mxGeometry x="70" y="510" width="100" height="60" as="geometry"/>
                </mxCell>
                <mxCell id="5" style="edgeStyle=none;html=1;entryX=0.5;entryY=0;entryDx=0;entryDy=0;entryPerimeter=0;fontColor=default;labelBackgroundColor=none;" edge="1" parent="1" source="6" target="4">
                    <mxGeometry relative="1" as="geometry"/>
                </mxCell>
                <mxCell id="6" value="" style="verticalLabelPosition=bottom;verticalAlign=top;html=1;shape=process;whiteSpace=wrap;rounded=1;size=0.14;arcSize=6;fontColor=default;labelBackgroundColor=none;" vertex="1" parent="1">
                    <mxGeometry x="70" y="420" width="100" height="60" as="geometry"/>
                </mxCell>
                <mxCell id="7" value="main()" style="text;html=1;align=center;verticalAlign=middle;resizable=0;points=[];autosize=1;strokeColor=none;fillColor=none;fontColor=default;labelBackgroundColor=none;" vertex="1" parent="1">
                    <mxGeometry x="95" y="440" width="50" height="20" as="geometry"/>
                </mxCell>
                <mxCell id="8" style="edgeStyle=none;html=1;entryX=0.5;entryY=0;entryDx=0;entryDy=0;fontColor=default;labelBackgroundColor=none;" edge="1" parent="1" source="9" target="6">
                    <mxGeometry relative="1" as="geometry"/>
                </mxCell>
                <mxCell id="9" value="&lt;div&gt;Bonus Report&lt;/div&gt;&lt;div&gt;================================================&lt;/div&gt;&lt;div&gt;Name&amp;nbsp; &amp;nbsp; &amp;nbsp; &amp;nbsp;SirName&amp;nbsp; &amp;nbsp; Dept&amp;nbsp; &amp;nbsp; &amp;nbsp; &amp;nbsp; &amp;nbsp; &amp;nbsp; &amp;nbsp; Bonus&amp;nbsp;&lt;/div&gt;&lt;div&gt;================================================&lt;/div&gt;" style="strokeWidth=2;html=1;shape=mxgraph.flowchart.display;whiteSpace=wrap;fontColor=default;labelBackgroundColor=none;" vertex="1" parent="1">
                    <mxGeometry x="70" y="310" width="100" height="60" as="geometry"/>
                </mxCell>
                <mxCell id="10" style="edgeStyle=none;html=1;entryX=0.5;entryY=0;entryDx=0;entryDy=0;labelBackgroundColor=none;fontColor=default;" edge="1" parent="1" source="11" target="13">
                    <mxGeometry relative="1" as="geometry"/>
                </mxCell>
                <mxCell id="11" value="&lt;div style=&quot;font-family: consolas, &amp;quot;courier new&amp;quot;, monospace; font-size: 14px; line-height: 19px;&quot;&gt;&lt;div&gt;emp_file = &lt;span style=&quot;&quot;&gt;open&lt;/span&gt;(&lt;span style=&quot;&quot;&gt;'Employee.txt'&lt;/span&gt;, &lt;span style=&quot;&quot;&gt;'r'&lt;/span&gt;)&lt;/div&gt;&lt;div&gt;&amp;nbsp; &amp;nbsp; point_file = &lt;span style=&quot;&quot;&gt;open&lt;/span&gt;(&lt;span style=&quot;&quot;&gt;'WorkPoints.txt'&lt;/span&gt;,&lt;span style=&quot;&quot;&gt;'r'&lt;/span&gt;)&lt;/div&gt;&lt;div&gt;&amp;nbsp; &amp;nbsp; dep_file = &lt;span style=&quot;&quot;&gt;open&lt;/span&gt;(&lt;span style=&quot;&quot;&gt;'DepartmentRate.txt'&lt;/span&gt;,&lt;span style=&quot;&quot;&gt;'r'&lt;/span&gt;)&lt;/div&gt;&lt;/div&gt;" style="rounded=1;whiteSpace=wrap;html=1;absoluteArcSize=1;arcSize=14;strokeWidth=2;fontColor=default;labelBackgroundColor=none;" vertex="1" parent="1">
                    <mxGeometry x="360" y="160" width="280" height="100" as="geometry"/>
                </mxCell>
                <mxCell id="12" style="edgeStyle=none;html=1;entryX=0.5;entryY=0;entryDx=0;entryDy=0;labelBackgroundColor=none;fontColor=default;" edge="1" parent="1" source="13" target="15">
                    <mxGeometry relative="1" as="geometry"/>
                </mxCell>
                <mxCell id="13" value="&lt;div style=&quot;font-family: consolas, &amp;quot;courier new&amp;quot;, monospace; font-size: 14px; line-height: 19px;&quot;&gt;&lt;div&gt;employee1 = emp_file.read().split(&lt;span style=&quot;&quot;&gt;'&lt;/span&gt;&lt;span style=&quot;&quot;&gt;\n&lt;/span&gt;&lt;span style=&quot;&quot;&gt;'&lt;/span&gt;)&lt;/div&gt;&lt;div&gt;&amp;nbsp; &amp;nbsp; work_point1 = point_file.read().split()&lt;/div&gt;&lt;div&gt;&amp;nbsp; &amp;nbsp; dep_rate1 = dep_file.read().split()&lt;/div&gt;&lt;/div&gt;" style="rounded=1;whiteSpace=wrap;html=1;absoluteArcSize=1;arcSize=14;strokeWidth=2;fontColor=default;labelBackgroundColor=none;" vertex="1" parent="1">
                    <mxGeometry x="360" y="310" width="280" height="100" as="geometry"/>
                </mxCell>
                <mxCell id="14" style="edgeStyle=none;html=1;entryX=0.5;entryY=0;entryDx=0;entryDy=0;entryPerimeter=0;labelBackgroundColor=none;fontColor=default;" edge="1" parent="1" source="15" target="21">
                    <mxGeometry relative="1" as="geometry"/>
                </mxCell>
                <mxCell id="15" value="&lt;div style=&quot;font-family: consolas, &amp;quot;courier new&amp;quot;, monospace; font-size: 14px; line-height: 19px;&quot;&gt;&lt;div&gt;index = &lt;span style=&quot;&quot;&gt;1&lt;/span&gt;&lt;/div&gt;&lt;div&gt;&amp;nbsp; &amp;nbsp; index_point = &lt;span style=&quot;&quot;&gt;1&lt;/span&gt;&lt;/div&gt;&lt;div&gt;&amp;nbsp; &amp;nbsp; listbonus = []&lt;/div&gt;&lt;div&gt;&amp;nbsp; &amp;nbsp; sumtotal = &lt;span style=&quot;&quot;&gt;0&lt;/span&gt;&lt;/div&gt;&lt;/div&gt;" style="rounded=1;whiteSpace=wrap;html=1;absoluteArcSize=1;arcSize=14;strokeWidth=2;fontColor=default;labelBackgroundColor=none;" vertex="1" parent="1">
                    <mxGeometry x="360" y="460" width="280" height="100" as="geometry"/>
                </mxCell>
                <mxCell id="16" value="&lt;span&gt;return&lt;/span&gt;" style="strokeWidth=2;html=1;shape=mxgraph.flowchart.terminator;whiteSpace=wrap;fontColor=default;labelBackgroundColor=none;" vertex="1" parent="1">
                    <mxGeometry x="235" y="1320" width="100" height="60" as="geometry"/>
                </mxCell>
                <mxCell id="17" style="edgeStyle=none;html=1;entryX=0.5;entryY=0;entryDx=0;entryDy=0;labelBackgroundColor=none;fontColor=default;" edge="1" parent="1" source="18" target="11">
                    <mxGeometry relative="1" as="geometry"/>
                </mxCell>
                <mxCell id="18" value="main()" style="strokeWidth=2;html=1;shape=mxgraph.flowchart.terminator;whiteSpace=wrap;fontColor=default;labelBackgroundColor=none;" vertex="1" parent="1">
                    <mxGeometry x="450" y="60" width="100" height="60" as="geometry"/>
                </mxCell>
                <mxCell id="19" style="edgeStyle=none;html=1;entryX=0.5;entryY=0;entryDx=0;entryDy=0;entryPerimeter=0;fontColor=default;labelBackgroundColor=none;" edge="1" parent="1" source="21" target="24">
                    <mxGeometry relative="1" as="geometry">
                        <Array as="points">
                            <mxPoint x="285" y="650"/>
                        </Array>
                    </mxGeometry>
                </mxCell>
                <mxCell id="20" style="edgeStyle=none;html=1;entryX=0.5;entryY=0;entryDx=0;entryDy=0;entryPerimeter=0;labelBackgroundColor=none;fontColor=default;" edge="1" parent="1" source="21" target="26">
                    <mxGeometry relative="1" as="geometry">
                        <Array as="points">
                            <mxPoint x="725" y="650"/>
                        </Array>
                    </mxGeometry>
                </mxCell>
                <mxCell id="21" value="&lt;div style=&quot;font-family: consolas, &amp;quot;courier new&amp;quot;, monospace; font-size: 14px; line-height: 19px;&quot;&gt;index &amp;lt; &lt;span style=&quot;&quot;&gt;len&lt;/span&gt;(employee1):&lt;/div&gt;" style="strokeWidth=2;html=1;shape=mxgraph.flowchart.decision;whiteSpace=wrap;fontColor=default;labelBackgroundColor=none;" vertex="1" parent="1">
                    <mxGeometry x="420" y="600" width="160" height="100" as="geometry"/>
                </mxCell>
                <mxCell id="22" style="edgeStyle=none;html=1;entryX=0.5;entryY=0;entryDx=0;entryDy=0;labelBackgroundColor=none;fontColor=default;" edge="1" parent="1" source="24" target="58">
                    <mxGeometry relative="1" as="geometry">
                        <Array as="points">
                            <mxPoint x="140" y="790"/>
                        </Array>
                    </mxGeometry>
                </mxCell>
                <mxCell id="23" style="edgeStyle=none;html=1;entryX=0.5;entryY=0;entryDx=0;entryDy=0;labelBackgroundColor=none;fontColor=default;" edge="1" parent="1" source="24" target="62">
                    <mxGeometry relative="1" as="geometry"/>
                </mxCell>
                <mxCell id="24" value="&lt;div style=&quot;font-family: consolas, &amp;quot;courier new&amp;quot;, monospace; font-size: 14px; line-height: 19px;&quot;&gt;&lt;span style=&quot;&quot;&gt;sum&lt;/span&gt; &lt;span style=&quot;&quot;&gt;in&lt;/span&gt; listbonus&lt;/div&gt;" style="strokeWidth=2;html=1;shape=mxgraph.flowchart.decision;whiteSpace=wrap;fontColor=default;labelBackgroundColor=none;" vertex="1" parent="1">
                    <mxGeometry x="200" y="740" width="170" height="100" as="geometry"/>
                </mxCell>
                <mxCell id="25" style="edgeStyle=none;html=1;entryX=0.5;entryY=0;entryDx=0;entryDy=0;entryPerimeter=0;labelBackgroundColor=none;fontColor=default;" edge="1" parent="1" source="26" target="30">
                    <mxGeometry relative="1" as="geometry"/>
                </mxCell>
                <mxCell id="26" value="&lt;div style=&quot;font-family: consolas, &amp;quot;courier new&amp;quot;, monospace; font-size: 14px; line-height: 19px;&quot;&gt;employee1[index]&lt;/div&gt;&lt;div style=&quot;font-family: consolas, &amp;quot;courier new&amp;quot;, monospace; font-size: 14px; line-height: 19px;&quot;&gt;.ljust(&lt;span style=&quot;&quot;&gt;10&lt;/span&gt;),employee1[index+&lt;span style=&quot;&quot;&gt;1&lt;/span&gt;].ljust(&lt;span style=&quot;&quot;&gt;10&lt;/span&gt;)&lt;/div&gt;&lt;div style=&quot;font-family: consolas, &amp;quot;courier new&amp;quot;, monospace; font-size: 14px; line-height: 19px;&quot;&gt;,employee1[index+&lt;span style=&quot;&quot;&gt;2&lt;/span&gt;].ljust(&lt;span style=&quot;&quot;&gt;10&lt;/span&gt;),&lt;span style=&quot;&quot;&gt;end&lt;/span&gt;=&lt;span style=&quot;&quot;&gt;''&lt;/span&gt;.ljust(&lt;span style=&quot;&quot;&gt;7&lt;/span&gt;)&lt;/div&gt;" style="strokeWidth=2;html=1;shape=mxgraph.flowchart.display;whiteSpace=wrap;fontColor=default;labelBackgroundColor=none;" vertex="1" parent="1">
                    <mxGeometry x="640" y="710" width="170" height="100" as="geometry"/>
                </mxCell>
                <mxCell id="27" value="true" style="text;html=1;align=center;verticalAlign=middle;resizable=0;points=[];autosize=1;strokeColor=none;fillColor=none;fontColor=default;labelBackgroundColor=none;" vertex="1" parent="1">
                    <mxGeometry x="620" y="620" width="40" height="20" as="geometry"/>
                </mxCell>
                <mxCell id="28" style="edgeStyle=none;html=1;entryX=0.5;entryY=0;entryDx=0;entryDy=0;entryPerimeter=0;labelBackgroundColor=none;fontColor=default;" edge="1" parent="1" source="30" target="33">
                    <mxGeometry relative="1" as="geometry">
                        <Array as="points">
                            <mxPoint x="955" y="940"/>
                        </Array>
                    </mxGeometry>
                </mxCell>
                <mxCell id="29" style="edgeStyle=none;html=1;entryX=0.5;entryY=0;entryDx=0;entryDy=0;labelBackgroundColor=none;fontColor=default;" edge="1" parent="1" source="30" target="54">
                    <mxGeometry relative="1" as="geometry">
                        <Array as="points">
                            <mxPoint x="585" y="940"/>
                        </Array>
                    </mxGeometry>
                </mxCell>
                <mxCell id="30" value="&lt;div style=&quot;font-family: consolas, &amp;quot;courier new&amp;quot;, monospace; font-size: 14px; line-height: 19px;&quot;&gt;w &lt;span style=&quot;&quot;&gt;in&lt;/span&gt; work_point1&lt;/div&gt;" style="strokeWidth=2;html=1;shape=mxgraph.flowchart.decision;whiteSpace=wrap;labelBackgroundColor=none;fontColor=default;" vertex="1" parent="1">
                    <mxGeometry x="645" y="890" width="160" height="100" as="geometry"/>
                </mxCell>
                <mxCell id="31" style="edgeStyle=none;html=1;entryX=0.5;entryY=0;entryDx=0;entryDy=0;entryPerimeter=0;labelBackgroundColor=none;fontColor=default;" edge="1" parent="1" source="33" target="39">
                    <mxGeometry relative="1" as="geometry">
                        <Array as="points">
                            <mxPoint x="1140" y="1100"/>
                        </Array>
                    </mxGeometry>
                </mxCell>
                <mxCell id="32" style="edgeStyle=none;html=1;labelBackgroundColor=none;fontColor=default;" edge="1" parent="1" source="33">
                    <mxGeometry relative="1" as="geometry">
                        <mxPoint x="1500" y="1730" as="targetPoint"/>
                        <Array as="points">
                            <mxPoint x="770" y="1100"/>
                            <mxPoint x="770" y="1730"/>
                            <mxPoint x="1150" y="1730"/>
                            <mxPoint x="1150" y="1830"/>
                            <mxPoint x="1500" y="1830"/>
                        </Array>
                    </mxGeometry>
                </mxCell>
                <mxCell id="33" value="&lt;div style=&quot;font-family: consolas, &amp;quot;courier new&amp;quot;, monospace; font-size: 14px; line-height: 19px;&quot;&gt;w == employee1[index-&lt;span style=&quot;&quot;&gt;1&lt;/span&gt;]&lt;/div&gt;" style="strokeWidth=2;html=1;shape=mxgraph.flowchart.decision;whiteSpace=wrap;labelBackgroundColor=none;fontColor=default;" vertex="1" parent="1">
                    <mxGeometry x="870" y="1050" width="170" height="100" as="geometry"/>
                </mxCell>
                <mxCell id="34" value="true" style="text;html=1;align=center;verticalAlign=middle;resizable=0;points=[];autosize=1;strokeColor=none;fillColor=none;fontColor=default;labelBackgroundColor=none;" vertex="1" parent="1">
                    <mxGeometry x="810" y="920" width="40" height="20" as="geometry"/>
                </mxCell>
                <mxCell id="35" value="false" style="text;html=1;align=center;verticalAlign=middle;resizable=0;points=[];autosize=1;strokeColor=none;fillColor=none;fontColor=default;labelBackgroundColor=none;" vertex="1" parent="1">
                    <mxGeometry x="600" y="920" width="40" height="20" as="geometry"/>
                </mxCell>
                <mxCell id="36" value="false" style="text;html=1;align=center;verticalAlign=middle;resizable=0;points=[];autosize=1;strokeColor=none;fillColor=none;fontColor=default;labelBackgroundColor=none;" vertex="1" parent="1">
                    <mxGeometry x="320" y="610" width="40" height="20" as="geometry"/>
                </mxCell>
                <mxCell id="37" style="edgeStyle=none;html=1;entryX=0.5;entryY=0;entryDx=0;entryDy=0;entryPerimeter=0;labelBackgroundColor=none;fontColor=default;" edge="1" parent="1" source="39" target="42">
                    <mxGeometry relative="1" as="geometry">
                        <Array as="points">
                            <mxPoint x="1310" y="1220"/>
                        </Array>
                    </mxGeometry>
                </mxCell>
                <mxCell id="38" style="edgeStyle=none;html=1;labelBackgroundColor=none;fontColor=default;entryX=0.5;entryY=0;entryDx=0;entryDy=0;" edge="1" parent="1" source="39" target="49">
                    <mxGeometry relative="1" as="geometry">
                        <mxPoint x="1160" y="1470" as="targetPoint"/>
                        <Array as="points">
                            <mxPoint x="980" y="1220"/>
                            <mxPoint x="980" y="1470"/>
                            <mxPoint x="1170" y="1470"/>
                            <mxPoint x="1320" y="1470"/>
                        </Array>
                    </mxGeometry>
                </mxCell>
                <mxCell id="39" value="&lt;div style=&quot;font-family: consolas, &amp;quot;courier new&amp;quot;, monospace; font-size: 14px; line-height: 19px;&quot;&gt;d &lt;span style=&quot;&quot;&gt;in&lt;/span&gt; dep_rate1&lt;/div&gt;" style="strokeWidth=2;html=1;shape=mxgraph.flowchart.decision;whiteSpace=wrap;labelBackgroundColor=none;fontColor=default;" vertex="1" parent="1">
                    <mxGeometry x="1060" y="1170" width="160" height="90" as="geometry"/>
                </mxCell>
                <mxCell id="40" style="edgeStyle=none;html=1;entryX=0.5;entryY=0;entryDx=0;entryDy=0;labelBackgroundColor=none;fontColor=default;" edge="1" parent="1" source="42" target="46">
                    <mxGeometry relative="1" as="geometry">
                        <Array as="points">
                            <mxPoint x="1485" y="1330"/>
                        </Array>
                    </mxGeometry>
                </mxCell>
                <mxCell id="41" style="edgeStyle=none;html=1;labelBackgroundColor=none;fontColor=default;entryX=0.5;entryY=0;entryDx=0;entryDy=0;" edge="1" parent="1" source="42" target="49">
                    <mxGeometry relative="1" as="geometry">
                        <mxPoint x="1150" y="1329.9999999999998" as="targetPoint"/>
                        <Array as="points">
                            <mxPoint x="1160" y="1330"/>
                            <mxPoint x="1160" y="1470"/>
                            <mxPoint x="1320" y="1470"/>
                        </Array>
                    </mxGeometry>
                </mxCell>
                <mxCell id="42" value="&lt;div style=&quot;font-family: consolas, &amp;quot;courier new&amp;quot;, monospace; font-size: 14px; line-height: 19px;&quot;&gt;d == employee1[index+&lt;span style=&quot;&quot;&gt;2&lt;/span&gt;]&lt;/div&gt;" style="strokeWidth=2;html=1;shape=mxgraph.flowchart.decision;whiteSpace=wrap;labelBackgroundColor=none;fontColor=default;" vertex="1" parent="1">
                    <mxGeometry x="1220" y="1290" width="180" height="80" as="geometry"/>
                </mxCell>
                <mxCell id="43" value="true" style="text;html=1;align=center;verticalAlign=middle;resizable=0;points=[];autosize=1;strokeColor=none;fillColor=none;fontColor=default;labelBackgroundColor=none;" vertex="1" parent="1">
                    <mxGeometry x="1230" y="1200" width="40" height="20" as="geometry"/>
                </mxCell>
                <mxCell id="44" value="true" style="text;html=1;align=center;verticalAlign=middle;resizable=0;points=[];autosize=1;strokeColor=none;fillColor=none;fontColor=default;labelBackgroundColor=none;" vertex="1" parent="1">
                    <mxGeometry x="1040" y="1070" width="40" height="20" as="geometry"/>
                </mxCell>
                <mxCell id="45" style="edgeStyle=none;html=1;labelBackgroundColor=none;fontColor=default;" edge="1" parent="1" source="46">
                    <mxGeometry relative="1" as="geometry">
                        <mxPoint x="1150" y="1140" as="targetPoint"/>
                        <Array as="points">
                            <mxPoint x="1650" y="1435"/>
                            <mxPoint x="1650" y="1140"/>
                        </Array>
                    </mxGeometry>
                </mxCell>
                <mxCell id="46" value="&lt;div style=&quot;font-family: consolas, &amp;quot;courier new&amp;quot;, monospace; font-size: 14px; line-height: 19px;&quot;&gt;&lt;div&gt;rate1 = &lt;span style=&quot;&quot;&gt;int&lt;/span&gt;(dep_rate1[dep_rate1.index(d)+&lt;span style=&quot;&quot;&gt;2&lt;/span&gt;])&lt;/div&gt;&lt;div&gt;&amp;nbsp; &amp;nbsp; &amp;nbsp; &amp;nbsp; &amp;nbsp; &amp;nbsp; &amp;nbsp; &amp;nbsp; &amp;nbsp; &amp;nbsp; &amp;nbsp; &amp;nbsp; rate2 = &lt;span style=&quot;&quot;&gt;int&lt;/span&gt;(dep_rate1[dep_rate1.index(d)+&lt;span style=&quot;&quot;&gt;1&lt;/span&gt;])&lt;/div&gt;&lt;/div&gt;" style="rounded=1;whiteSpace=wrap;html=1;absoluteArcSize=1;arcSize=14;strokeWidth=2;labelBackgroundColor=none;fontColor=default;" vertex="1" parent="1">
                    <mxGeometry x="1380" y="1390" width="210" height="90" as="geometry"/>
                </mxCell>
                <mxCell id="47" value="true" style="text;html=1;align=center;verticalAlign=middle;resizable=0;points=[];autosize=1;strokeColor=none;fillColor=none;fontColor=default;labelBackgroundColor=none;" vertex="1" parent="1">
                    <mxGeometry x="1410" y="1310" width="40" height="20" as="geometry"/>
                </mxCell>
                <mxCell id="48" style="edgeStyle=none;html=1;entryX=0.5;entryY=0;entryDx=0;entryDy=0;entryPerimeter=0;labelBackgroundColor=none;fontColor=default;" edge="1" parent="1" source="49" target="52">
                    <mxGeometry relative="1" as="geometry"/>
                </mxCell>
                <mxCell id="49" value="&lt;div style=&quot;font-family: consolas, &amp;quot;courier new&amp;quot;, monospace; font-size: 14px; line-height: 19px;&quot;&gt;listbonus.append((&lt;span style=&quot;&quot;&gt;int&lt;/span&gt;(work_point1[index_point])-&lt;span style=&quot;&quot;&gt;40&lt;/span&gt;)*rate1 + &lt;span style=&quot;&quot;&gt;40&lt;/span&gt;*rate2)&lt;/div&gt;" style="rounded=1;whiteSpace=wrap;html=1;absoluteArcSize=1;arcSize=14;strokeWidth=2;labelBackgroundColor=none;fontColor=default;" vertex="1" parent="1">
                    <mxGeometry x="1210" y="1540" width="220" height="100" as="geometry"/>
                </mxCell>
                <mxCell id="50" value="true" style="text;html=1;align=center;verticalAlign=middle;resizable=0;points=[];autosize=1;strokeColor=none;fillColor=none;fontColor=default;labelBackgroundColor=none;" vertex="1" parent="1">
                    <mxGeometry x="1170" y="1300" width="40" height="20" as="geometry"/>
                </mxCell>
                <mxCell id="51" style="edgeStyle=none;html=1;labelBackgroundColor=none;fontColor=default;" edge="1" parent="1" source="52">
                    <mxGeometry relative="1" as="geometry">
                        <mxPoint x="730" y="860" as="targetPoint"/>
                        <Array as="points">
                            <mxPoint x="1750" y="1730"/>
                            <mxPoint x="1750" y="860"/>
                        </Array>
                    </mxGeometry>
                </mxCell>
                <mxCell id="52" value="&lt;div style=&quot;font-family: consolas, &amp;quot;courier new&amp;quot;, monospace; font-size: 14px; line-height: 19px;&quot;&gt;&lt;span style=&quot;&quot;&gt;'&lt;/span&gt;&lt;span style=&quot;&quot;&gt;{:,}&lt;/span&gt;&lt;span style=&quot;&quot;&gt;'&lt;/span&gt;.format((&lt;span style=&quot;&quot;&gt;int&lt;/span&gt;(work_point1[index_point])-&lt;span style=&quot;&quot;&gt;40&lt;/span&gt;)*rate1 + &lt;span style=&quot;&quot;&gt;40&lt;/span&gt;*rate2)+&lt;span style=&quot;&quot;&gt;&quot;.00 &quot;&lt;/span&gt;&lt;/div&gt;" style="strokeWidth=2;html=1;shape=mxgraph.flowchart.display;whiteSpace=wrap;labelBackgroundColor=none;fontColor=default;" vertex="1" parent="1">
                    <mxGeometry x="1225" y="1680" width="190" height="100" as="geometry"/>
                </mxCell>
                <mxCell id="53" style="edgeStyle=none;html=1;labelBackgroundColor=none;fontColor=default;" edge="1" parent="1" source="54">
                    <mxGeometry relative="1" as="geometry">
                        <mxPoint x="290" y="720" as="targetPoint"/>
                        <Array as="points">
                            <mxPoint x="430" y="1100"/>
                            <mxPoint x="430" y="720"/>
                        </Array>
                    </mxGeometry>
                </mxCell>
                <mxCell id="54" value="&lt;div style=&quot;font-family: consolas, &amp;quot;courier new&amp;quot;, monospace; font-size: 14px; line-height: 19px;&quot;&gt;&lt;div&gt;index += &lt;span style=&quot;&quot;&gt;4&lt;/span&gt;&lt;/div&gt;&lt;div&gt;&amp;nbsp; &amp;nbsp; &amp;nbsp; &amp;nbsp; index_point += &lt;span style=&quot;&quot;&gt;2&lt;/span&gt;&lt;/div&gt;&lt;/div&gt;" style="rounded=1;whiteSpace=wrap;html=1;absoluteArcSize=1;arcSize=14;strokeWidth=2;labelBackgroundColor=none;fontColor=default;" vertex="1" parent="1">
                    <mxGeometry x="480" y="1040" width="210" height="100" as="geometry"/>
                </mxCell>
                <mxCell id="55" value="false" style="text;html=1;align=center;verticalAlign=middle;resizable=0;points=[];autosize=1;strokeColor=none;fillColor=none;fontColor=default;labelBackgroundColor=none;" vertex="1" parent="1">
                    <mxGeometry x="810" y="1070" width="40" height="20" as="geometry"/>
                </mxCell>
                <mxCell id="56" value="false" style="text;html=1;align=center;verticalAlign=middle;resizable=0;points=[];autosize=1;strokeColor=none;fillColor=none;fontColor=default;labelBackgroundColor=none;" vertex="1" parent="1">
                    <mxGeometry x="1000" y="1200" width="40" height="20" as="geometry"/>
                </mxCell>
                <mxCell id="57" style="edgeStyle=none;html=1;labelBackgroundColor=none;fontColor=default;" edge="1" parent="1" source="58">
                    <mxGeometry relative="1" as="geometry">
                        <mxPoint x="280" y="720" as="targetPoint"/>
                        <Array as="points">
                            <mxPoint x="20" y="915"/>
                            <mxPoint x="20" y="720"/>
                        </Array>
                    </mxGeometry>
                </mxCell>
                <mxCell id="58" value="&lt;div style=&quot;font-family: consolas, &amp;quot;courier new&amp;quot;, monospace; font-size: 14px; line-height: 19px;&quot;&gt;sumtotal += &lt;span style=&quot;&quot;&gt;sum&lt;/span&gt;&lt;/div&gt;" style="rounded=1;whiteSpace=wrap;html=1;absoluteArcSize=1;arcSize=14;strokeWidth=2;labelBackgroundColor=none;fontColor=default;" vertex="1" parent="1">
                    <mxGeometry x="70" y="880" width="140" height="70" as="geometry"/>
                </mxCell>
                <mxCell id="59" value="true" style="text;html=1;align=center;verticalAlign=middle;resizable=0;points=[];autosize=1;strokeColor=none;fillColor=none;fontColor=default;labelBackgroundColor=none;" vertex="1" parent="1">
                    <mxGeometry x="150" y="770" width="40" height="20" as="geometry"/>
                </mxCell>
                <mxCell id="60" value="false" style="text;html=1;align=center;verticalAlign=middle;resizable=0;points=[];autosize=1;strokeColor=none;fillColor=none;fontColor=default;labelBackgroundColor=none;" vertex="1" parent="1">
                    <mxGeometry x="310" y="860" width="40" height="20" as="geometry"/>
                </mxCell>
                <mxCell id="61" style="edgeStyle=none;html=1;entryX=0.5;entryY=0;entryDx=0;entryDy=0;entryPerimeter=0;labelBackgroundColor=none;fontColor=default;" edge="1" parent="1" source="62" target="64">
                    <mxGeometry relative="1" as="geometry"/>
                </mxCell>
                <mxCell id="62" value="&lt;div style=&quot;font-family: consolas, &amp;quot;courier new&amp;quot;, monospace; font-size: 14px; line-height: 19px;&quot;&gt;&lt;div&gt;emp_file.close()&lt;/div&gt;&lt;div&gt;&amp;nbsp; &amp;nbsp; point_file.close()&lt;/div&gt;&lt;div&gt;&amp;nbsp; &amp;nbsp; dep_file.close()&lt;/div&gt;&lt;/div&gt;" style="rounded=1;whiteSpace=wrap;html=1;absoluteArcSize=1;arcSize=14;strokeWidth=2;labelBackgroundColor=none;fontColor=default;" vertex="1" parent="1">
                    <mxGeometry x="190" y="1040" width="190" height="100" as="geometry"/>
                </mxCell>
                <mxCell id="63" style="edgeStyle=none;html=1;entryX=0.5;entryY=0;entryDx=0;entryDy=0;entryPerimeter=0;labelBackgroundColor=none;fontColor=default;" edge="1" parent="1" source="64" target="16">
                    <mxGeometry relative="1" as="geometry"/>
                </mxCell>
                <mxCell id="64" value="&lt;div style=&quot;font-family: consolas, &amp;quot;courier new&amp;quot;, monospace; font-size: 14px; line-height: 19px;&quot;&gt;&lt;span style=&quot;font-family: consolas, &amp;quot;courier new&amp;quot;, monospace;&quot;&gt;'================================================'&lt;/span&gt;&lt;/div&gt;&lt;div style=&quot;font-family: consolas, &amp;quot;courier new&amp;quot;, monospace; font-size: 14px; line-height: 19px;&quot;&gt;&lt;span style=&quot;&quot;&gt;'Total Bonus'&lt;/span&gt;.ljust(&lt;span style=&quot;&quot;&gt;37&lt;/span&gt;), &lt;span style=&quot;&quot;&gt;'&lt;/span&gt;&lt;span style=&quot;&quot;&gt;{:,}&lt;/span&gt;&lt;span style=&quot;&quot;&gt;'&lt;/span&gt;.format(sumtotal)+&lt;span style=&quot;&quot;&gt;&quot;.00&quot;&lt;/span&gt;&lt;br&gt;&lt;/div&gt;&lt;div style=&quot;font-family: consolas, &amp;quot;courier new&amp;quot;, monospace; font-size: 14px; line-height: 19px;&quot;&gt;&lt;div style=&quot;font-family: &amp;quot;consolas&amp;quot; , &amp;quot;courier new&amp;quot; , monospace ; line-height: 19px&quot;&gt;&lt;span style=&quot;&quot;&gt;'================================================'&lt;/span&gt;&lt;/div&gt;&lt;/div&gt;" style="strokeWidth=2;html=1;shape=mxgraph.flowchart.display;whiteSpace=wrap;labelBackgroundColor=none;fontColor=default;" vertex="1" parent="1">
                    <mxGeometry x="202.5" y="1200" width="165" height="80" as="geometry"/>
                </mxCell>
            </root>
        </mxGraphModel>
    </diagram>
</mxfile>